<?xml version="1.0" encoding="utf-8"?>
<!-- Generator: Adobe Illustrator 16.0.0, SVG Export Plug-In . SVG Version: 6.00 Build 0)  -->
<!DOCTYPE svg PUBLIC "-//W3C//DTD SVG 1.1//EN" "http://www.w3.org/Graphics/SVG/1.1/DTD/svg11.dtd">
<svg version="1.1" id="Layer_1" xmlns="http://www.w3.org/2000/svg" xmlns:xlink="http://www.w3.org/1999/xlink" x="0px" y="0px"
	 width="679.333px" height="156px" viewBox="0 0 679.333 156" enable-background="new 0 0 679.333 156" xml:space="preserve">
<g>
	<path d="M100.002,77.707c0,23.519-17.639,41.519-41.638,41.519s-41.638-18-41.638-41.519s17.639-41.518,41.638-41.518
		S100.002,54.188,100.002,77.707z M87.763,77.707c0-17.759-12.239-30.238-29.399-30.238c-17.159,0-29.399,12.479-29.399,30.238
		s12.24,30.239,29.399,30.239C75.524,107.946,87.763,95.465,87.763,77.707z"/>
	<path d="M110.566,117.665l16.799-86.036l27.839,62.157l28.079-62.157l15.119,86.036h-12.479l-8.16-48.237l-23.279,51.958
		l-23.039-52.078l-8.4,48.357H110.566z"/>
	<path d="M316.604,76.027v11.279h19.919c-0.479,4.56-2.28,9.239-6.72,13.56c-5.16,5.039-10.92,7.08-17.879,7.08
		c-7.68,0-14.52-2.16-20.039-8.04c-1.625-1.735-3.031-3.699-4.204-5.819l16.779-16.779l-16.319-16.319
		c1.146-1.959,2.479-3.734,3.984-5.24c3.959-3.96,10.68-8.279,21.119-8.279c4.92,0,9.719,0.84,14.158,3.479
		c3.84,2.16,7.44,5.76,9.84,9.12l9.721-6.84c-2.281-3.6-6.36-8.279-12.961-12c-6.238-3.479-13.679-5.039-20.879-5.039
		c-12.359,0-23.279,5.039-30.118,11.999c-1.237,1.237-2.42,2.623-3.525,4.139l-39.156-39.157l-24.459,24.459h43.999v11.52h-31.918
		v20.279h30.958v11.52h-30.958v25.198h31.918v11.52h-43.319l23.779,23.779l38.524-38.524c1.304,1.897,2.764,3.702,4.396,5.386
		c7.32,7.561,15.6,10.92,27.24,10.92c9.119,0,18.959-2.16,27.238-10.199c7.799-7.561,11.879-18.72,11.879-32.398v-0.601H316.604z"/>
	<path d="M410.443,98.346h-34.199l-8.76,19.318h-13.199l39.84-84.716l37.918,84.716h-13.199L410.443,98.346z M405.523,86.827
		l-11.879-27.119l-12.359,27.119H405.523z"/>
	<g>
		<path d="M537.873,45.715h-33.52V67.01h32.51v12.097h-32.51v26.462h33.52v12.096h-46.371V33.618h46.371V45.715z"/>
		<path d="M569.496,33.618c10.207,0,16.76,1.26,22.178,4.915c9.199,6.174,9.955,16.129,9.955,19.783
			c0,12.097-7.436,20.917-18.648,23.437l26.209,35.912h-15.5l-24.066-34.399h-2.268v34.399h-12.854V33.618H569.496z M567.355,72.176
			h4.031c3.529,0,17.893-0.378,17.893-13.734c0-11.845-11.215-12.979-17.514-12.979h-4.41V72.176z"/>
		<path d="M640.309,33.618c5.166,0,12.348,0.504,18.396,4.537c7.057,4.662,10.459,12.727,10.459,20.413
			c0,4.914-1.26,12.475-8.191,18.397c-6.678,5.67-14.363,6.552-20.539,6.552h-5.795v34.147h-12.854V33.618H640.309z M634.639,71.672
			h5.795c11.09,0,16.381-5.418,16.381-13.23c0-4.663-1.889-12.979-16.506-12.979h-5.67V71.672z"/>
	</g>
</g>
</svg>
